# xmcd CD database file
#
# Track frame offsets:
#	150
#	13880
#	28909
#	46287
#	55695
#	67883
#	78450
#	96749
#	112269
#	127249
#
# Disc length: 1890 seconds
#
# Revision: 0
# Processed by: cddbd v1.5.2PL0 Copyright (c) Steve Scherf et al.
# Submitted via: CDex 1.50
#
DISCID=9207600a
DTITLE=Tanya Tucker - Here's Some Love
DYEAR=1976
DGENRE=Country-rock
TTITLE0=Here's Some Love
TTITLE1=Round And Round
TTITLE2=Comin' Home Alone
TTITLE3=Gonna Love You Anyway
TTITLE4=Holding On
TTITLE5=You Just Loved The Leavin' Out Of Me
TTITLE6=The Gospel Singer
TTITLE7=Take Me To Heaven
TTITLE8=Short Cut
TTITLE9=I Use The Soap
EXTD=YEAR: 1976
EXTT0=
EXTT1=
EXTT2=
EXTT3=
EXTT4=
EXTT5=
EXTT6=
EXTT7=
EXTT8=
EXTT9=
PLAYORDER=
